<?xml version="1.0" standalone="no"?>
<!DOCTYPE svg PUBLIC "-//W3C//DTD SVG 20010904//EN"
 "http://www.w3.org/TR/2001/REC-SVG-20010904/DTD/svg10.dtd">
<svg version="1.0" xmlns="http://www.w3.org/2000/svg"
 width="455.000000pt" height="455.000000pt" viewBox="0 0 455.000000 455.000000"
 preserveAspectRatio="xMidYMid meet">
<metadata>
Created by potrace 1.11, written by Peter Selinger 2001-2013
</metadata>
<g transform="translate(0.000000,455.000000) scale(0.100000,-0.100000)"
fill="#000000" stroke="none">
<path d="M1713 3302 c-38 -64 -94 -160 -125 -212 -30 -52 -64 -111 -75 -130
-12 -19 -71 -121 -133 -227 l-112 -192 -81 54 c-45 29 -225 148 -401 264 -175
117 -320 210 -322 208 -3 -3 74 -253 328 -1062 28 -88 52 -169 55 -181 l5 -21
1429 0 1428 0 10 31 c15 47 176 561 226 721 24 77 69 221 100 319 31 99 59
184 62 189 14 24 -50 -17 -412 -257 -214 -143 -392 -259 -395 -259 -5 1 -59
86 -102 163 -14 25 -108 187 -210 360 -101 173 -189 323 -195 333 -8 16 -50
-49 -259 -401 -137 -231 -252 -417 -256 -414 -4 4 -117 193 -251 419 l-245
413 -69 -118z"/>
<path d="M493 1660 c-164 -36 -247 -234 -168 -396 43 -87 116 -127 235 -127
87 0 123 14 118 46 -2 13 -9 21 -18 18 -8 -2 -44 -5 -79 -7 -142 -7 -222 75
-215 219 6 99 54 165 137 188 40 11 117 8 148 -5 12 -5 18 0 23 20 8 29 -4 43
-39 45 -89 5 -114 5 -142 -1z"/>
<path d="M925 1661 c-67 -17 -127 -64 -158 -126 -50 -102 -33 -256 38 -329 45
-47 83 -65 146 -69 101 -8 180 38 225 129 51 105 33 267 -39 335 -52 49 -146
76 -212 60z m126 -74 c83 -56 110 -198 59 -302 -35 -68 -68 -90 -138 -90 -70
0 -102 21 -137 89 -54 107 -18 267 70 311 45 22 106 19 146 -8z"/>
<path d="M1448 1665 c-2 -2 -32 -4 -68 -6 -36 -1 -70 -4 -75 -6 -12 -4 -15
-496 -4 -507 9 -10 147 -10 199 -1 137 23 214 118 214 265 0 142 -63 220 -200
246 -35 6 -65 10 -66 9z m114 -87 c59 -35 82 -82 82 -168 1 -137 -68 -209
-209 -216 l-74 -3 0 201 c0 111 2 205 5 209 3 5 37 7 77 6 58 -2 82 -8 119
-29z"/>
<path d="M3601 1658 c-173 -27 -268 -171 -225 -341 37 -145 178 -207 382 -167
l62 13 0 139 0 139 -97 -3 -97 -3 1 -27 c2 -66 2 -65 29 -62 45 5 53 -4 51
-54 -2 -52 -10 -62 -47 -62 -104 0 -170 66 -170 171 0 126 100 188 252 156 37
-8 37 -8 48 33 6 22 8 45 5 50 -5 8 -39 14 -120 24 -11 1 -44 -1 -74 -6z"/>
<path d="M4028 1659 c-45 -12 -97 -49 -113 -79 -8 -16 -15 -48 -15 -71 0 -63
35 -102 135 -149 94 -45 109 -67 70 -106 -30 -30 -77 -30 -171 0 -19 6 -23 1
-33 -38 -6 -25 -11 -47 -11 -49 0 -11 101 -31 156 -30 43 0 75 7 108 23 53 25
76 54 86 108 15 82 -24 134 -135 183 -86 38 -108 66 -74 100 18 18 30 20 78
16 31 -3 63 -8 72 -11 12 -5 18 3 27 32 7 22 12 44 12 50 0 20 -141 36 -192
21z"/>
<path d="M1804 1400 l0 -260 142 0 c127 0 142 2 146 18 10 38 0 42 -113 42
l-109 0 0 89 c0 62 4 90 13 93 6 2 51 3 100 3 l87 -2 0 29 0 28 -100 0 -100 0
0 80 0 80 68 1 c37 1 83 0 103 -1 28 -1 37 3 41 17 11 40 2 43 -141 43 l-137
0 0 -260z"/>
<path d="M2171 1400 l0 -261 57 3 57 3 5 85 c4 60 10 92 23 110 15 21 19 23
27 10 5 -8 33 -58 63 -110 l54 -95 66 -3 c37 -2 67 0 67 3 0 3 -39 70 -86 147
-75 123 -85 145 -74 161 6 11 43 59 81 108 38 49 69 91 69 94 0 3 -31 5 -68 5
l-69 0 -74 -110 -74 -110 -3 110 -3 110 -59 0 -59 0 0 -260z"/>
<path d="M2642 1418 c0 -134 2 -251 4 -260 4 -14 17 -18 60 -18 l54 0 0 260 0
260 -58 0 -59 0 -1 -242z"/>
<path d="M2860 1400 l0 -260 55 0 54 0 -2 191 -2 191 25 -54 c14 -30 59 -116
100 -191 l75 -137 61 0 61 0 1 260 0 260 -55 0 -55 0 4 -177 4 -178 -56 110
c-31 61 -74 140 -95 178 l-39 67 -68 0 -68 0 0 -260z"/>
</g>
</svg>
