<?xml version="1.0" encoding="UTF-8" standalone="no"?>
<svg width="182px" height="105px" viewBox="0 0 182 105" version="1.1" xmlns="http://www.w3.org/2000/svg" xmlns:xlink="http://www.w3.org/1999/xlink">
    <!-- Generator: Sketch 39.1 (31720) - http://www.bohemiancoding.com/sketch -->
    <title>Group</title>
    <desc>Created with Sketch.</desc>
    <defs></defs>
    <g id="Symbols" stroke="none" stroke-width="1" fill="none" fill-rule="evenodd">
        <g id="Logo">
            <g id="Group">
                <path d="M17.85,100.815 C16.625,101.41 14.735,101.795 12.88,101.795 C7.14,101.795 3.815,98.085 3.815,92.31 C3.815,86.115 7.49,82.58 13.02,82.58 C14.98,82.58 16.625,83 17.78,83.56 L18.515,81.075 C17.71,80.655 15.855,80.025 12.915,80.025 C5.6,80.025 0.595,85.03 0.595,92.415 C0.595,100.15 5.6,104.35 12.25,104.35 C15.12,104.35 17.36,103.79 18.48,103.23 L17.85,100.815 Z M31.85,80.025 C25.55,80.025 20.895,84.925 20.895,92.415 C20.895,99.555 25.27,104.385 31.5,104.385 C37.52,104.385 42.455,100.08 42.455,91.96 C42.455,84.96 38.29,80.025 31.85,80.025 L31.85,80.025 Z M31.71,82.51 C36.785,82.51 39.235,87.41 39.235,92.1 C39.235,97.455 36.505,101.9 31.675,101.9 C26.88,101.9 24.15,97.385 24.15,92.345 C24.15,87.165 26.67,82.51 31.71,82.51 L31.71,82.51 Z M46.41,103.93 C47.95,104.105 49.77,104.21 51.94,104.21 C56.525,104.21 60.165,103.02 62.37,100.815 C64.575,98.645 65.765,95.495 65.765,91.645 C65.765,87.83 64.54,85.1 62.44,83.175 C60.375,81.25 57.26,80.235 52.885,80.235 C50.47,80.235 48.265,80.445 46.41,80.725 L46.41,103.93 Z M49.455,82.965 C50.26,82.79 51.45,82.65 53.025,82.65 C59.465,82.65 62.615,86.185 62.58,91.75 C62.58,98.12 59.045,101.76 52.535,101.76 C51.345,101.76 50.225,101.725 49.455,101.585 L49.455,82.965 Z M81.935,90.42 L72.765,90.42 L72.765,82.965 L82.46,82.965 L82.46,80.41 L69.72,80.41 L69.72,104 L82.985,104 L82.985,101.445 L72.765,101.445 L72.765,92.94 L81.935,92.94 L81.935,90.42 Z M86.59,104 L91.875,104 L91.875,96.3 L93.905,93.815 L99.68,104 L105.91,104 L97.685,90.455 L105.49,80.41 L98.945,80.41 L93.59,88.25 C93.065,89.09 92.505,89.93 91.98,90.84 L91.875,90.84 L91.875,80.41 L86.59,80.41 L86.59,104 Z M108.08,80.41 L108.08,104 L113.435,104 L113.435,80.41 L108.08,80.41 Z M122.955,104 L122.955,96.895 C122.955,93.045 122.885,89.72 122.745,86.605 L122.85,86.57 C124.005,89.335 125.545,92.38 126.945,94.9 L131.985,104 L137.585,104 L137.585,80.41 L132.685,80.41 L132.685,87.305 C132.685,90.84 132.79,94.025 133.14,97.14 L133.035,97.14 C131.985,94.48 130.585,91.54 129.185,89.055 L124.285,80.41 L118.055,80.41 L118.055,104 L122.955,104 Z M161.91,90.49 L153.125,90.49 L153.125,94.655 L156.765,94.655 L156.765,99.59 C156.345,99.8 155.365,99.94 154.14,99.94 C149.765,99.94 146.72,97.07 146.72,92.205 C146.72,87.095 150.08,84.575 154.525,84.575 C157.115,84.575 158.725,85.03 160.02,85.59 L161.14,81.32 C159.985,80.76 157.64,80.165 154.595,80.165 C146.86,80.165 141.155,84.645 141.12,92.485 C141.085,95.95 142.275,99.03 144.445,101.06 C146.615,103.16 149.73,104.245 154.035,104.245 C157.15,104.245 160.265,103.475 161.91,102.915 L161.91,90.49 Z M165.165,102.915 C166.495,103.65 169.155,104.35 171.85,104.35 C178.325,104.35 181.37,100.99 181.37,97.035 C181.37,93.71 179.41,91.54 175.245,90 C172.2,88.845 170.87,88.18 170.87,86.675 C170.87,85.45 171.99,84.4 174.3,84.4 C176.61,84.4 178.29,85.065 179.235,85.52 L180.425,81.215 C179.025,80.585 177.065,80.025 174.405,80.025 C168.84,80.025 165.48,83.105 165.48,87.13 C165.48,90.56 168.035,92.73 171.955,94.095 C174.79,95.11 175.91,95.95 175.91,97.42 C175.91,98.96 174.615,99.975 172.165,99.975 C169.89,99.975 167.685,99.24 166.25,98.505 L165.165,102.915 Z" id="CODEKINGS" fill="#000000"></path>
                <g id="Crown" transform="translate(8.000000, 0.000000)">
                    <g id="Group-2">
                        <polygon id="Path-2" fill="#38969D" points="0 15.5415046 18.3289218 73.8385749 104.935424 73.8385773 82.6086957 36.7160843 60.7343057 0 37.165936 40.1745821"></polygon>
                        <polygon id="Path-2" fill="#004A4D" transform="translate(114.815538, 36.919289) scale(-1, 1) translate(-114.815538, -36.919289) " points="62.3478261 15.5415046 80.6767479 73.8385749 167.28325 73.8385773 144.956522 36.7160843 123.082132 5.68434189e-14 99.5137621 40.1745821"></polygon>
                    </g>
                </g>
            </g>
        </g>
    </g>
</svg>